<mxfile host="app.diagrams.net" modified="2023-09-29T09:50:24.458Z" agent="Mozilla/5.0 (Windows NT 10.0; Win64; x64) AppleWebKit/537.36 (KHTML, like Gecko) Chrome/116.0.0.0 Safari/537.36" etag="3j2e9ricJtr7TK5KTPlR" version="21.7.5" type="github">
  <diagram name="Page-1" id="6RF2Loae_BbgiCjcI58X">
    <mxGraphModel dx="880" dy="484" grid="1" gridSize="10" guides="1" tooltips="1" connect="1" arrows="1" fold="1" page="1" pageScale="1" pageWidth="827" pageHeight="1169" math="0" shadow="0">
      <root>
        <mxCell id="0" />
        <mxCell id="1" parent="0" />
        <mxCell id="dAYFn0Y0DVcSOOEVSeJ7-288" style="edgeStyle=orthogonalEdgeStyle;rounded=0;orthogonalLoop=1;jettySize=auto;html=1;exitX=1;exitY=0.5;exitDx=0;exitDy=0;endArrow=none;endFill=0;entryX=0;entryY=0.5;entryDx=0;entryDy=0;" edge="1" parent="1" source="dAYFn0Y0DVcSOOEVSeJ7-290" target="dAYFn0Y0DVcSOOEVSeJ7-312">
          <mxGeometry relative="1" as="geometry">
            <mxPoint x="290" y="150" as="targetPoint" />
          </mxGeometry>
        </mxCell>
        <mxCell id="dAYFn0Y0DVcSOOEVSeJ7-289" value="1,1" style="edgeLabel;html=1;align=center;verticalAlign=middle;resizable=0;points=[];" vertex="1" connectable="0" parent="dAYFn0Y0DVcSOOEVSeJ7-288">
          <mxGeometry x="-0.04" y="-1" relative="1" as="geometry">
            <mxPoint as="offset" />
          </mxGeometry>
        </mxCell>
        <mxCell id="dAYFn0Y0DVcSOOEVSeJ7-290" value="oeuvre" style="swimlane;whiteSpace=wrap;html=1;" vertex="1" parent="1">
          <mxGeometry x="37.5" y="300" width="160" height="290" as="geometry">
            <mxRectangle x="100" y="90" width="80" height="30" as="alternateBounds" />
          </mxGeometry>
        </mxCell>
        <mxCell id="dAYFn0Y0DVcSOOEVSeJ7-291" value="nom" style="text;html=1;align=center;verticalAlign=middle;resizable=0;points=[];autosize=1;strokeColor=none;fillColor=none;" vertex="1" parent="dAYFn0Y0DVcSOOEVSeJ7-290">
          <mxGeometry x="-2.5" y="18" width="50" height="30" as="geometry" />
        </mxCell>
        <mxCell id="dAYFn0Y0DVcSOOEVSeJ7-292" value="prix" style="text;html=1;align=center;verticalAlign=middle;resizable=0;points=[];autosize=1;strokeColor=none;fillColor=none;" vertex="1" parent="dAYFn0Y0DVcSOOEVSeJ7-290">
          <mxGeometry x="2.5" y="40" width="40" height="30" as="geometry" />
        </mxCell>
        <mxCell id="dAYFn0Y0DVcSOOEVSeJ7-293" value="matière" style="text;html=1;align=center;verticalAlign=middle;resizable=0;points=[];autosize=1;strokeColor=none;fillColor=none;" vertex="1" parent="dAYFn0Y0DVcSOOEVSeJ7-290">
          <mxGeometry x="-7.5" y="58" width="60" height="30" as="geometry" />
        </mxCell>
        <mxCell id="dAYFn0Y0DVcSOOEVSeJ7-294" value="catégorie&lt;br&gt;" style="text;html=1;align=center;verticalAlign=middle;resizable=0;points=[];autosize=1;strokeColor=none;fillColor=none;" vertex="1" parent="dAYFn0Y0DVcSOOEVSeJ7-290">
          <mxGeometry x="-7.5" y="80" width="70" height="30" as="geometry" />
        </mxCell>
        <mxCell id="dAYFn0Y0DVcSOOEVSeJ7-295" value="titre" style="text;html=1;align=center;verticalAlign=middle;resizable=0;points=[];autosize=1;strokeColor=none;fillColor=none;" vertex="1" parent="dAYFn0Y0DVcSOOEVSeJ7-290">
          <mxGeometry x="7.5" y="220" width="40" height="30" as="geometry" />
        </mxCell>
        <mxCell id="dAYFn0Y0DVcSOOEVSeJ7-296" value="image&lt;br&gt;" style="text;html=1;align=center;verticalAlign=middle;resizable=0;points=[];autosize=1;strokeColor=none;fillColor=none;" vertex="1" parent="dAYFn0Y0DVcSOOEVSeJ7-290">
          <mxGeometry x="-2.5" y="140" width="60" height="30" as="geometry" />
        </mxCell>
        <mxCell id="dAYFn0Y0DVcSOOEVSeJ7-297" value="description" style="text;html=1;align=center;verticalAlign=middle;resizable=0;points=[];autosize=1;strokeColor=none;fillColor=none;" vertex="1" parent="dAYFn0Y0DVcSOOEVSeJ7-290">
          <mxGeometry x="-7.5" y="170" width="80" height="30" as="geometry" />
        </mxCell>
        <mxCell id="dAYFn0Y0DVcSOOEVSeJ7-298" value="stock" style="text;html=1;align=center;verticalAlign=middle;resizable=0;points=[];autosize=1;strokeColor=none;fillColor=none;" vertex="1" parent="dAYFn0Y0DVcSOOEVSeJ7-290">
          <mxGeometry x="7.5" y="250" width="50" height="30" as="geometry" />
        </mxCell>
        <mxCell id="dAYFn0Y0DVcSOOEVSeJ7-299" value="date" style="text;html=1;align=center;verticalAlign=middle;resizable=0;points=[];autosize=1;strokeColor=none;fillColor=none;" vertex="1" parent="dAYFn0Y0DVcSOOEVSeJ7-290">
          <mxGeometry x="80" y="40" width="50" height="30" as="geometry" />
        </mxCell>
        <mxCell id="dAYFn0Y0DVcSOOEVSeJ7-300" value="dimention" style="text;html=1;align=center;verticalAlign=middle;resizable=0;points=[];autosize=1;strokeColor=none;fillColor=none;" vertex="1" parent="dAYFn0Y0DVcSOOEVSeJ7-290">
          <mxGeometry x="-7.5" y="110" width="80" height="30" as="geometry" />
        </mxCell>
        <mxCell id="dAYFn0Y0DVcSOOEVSeJ7-301" value="id" style="text;html=1;align=center;verticalAlign=middle;resizable=0;points=[];autosize=1;strokeColor=none;fillColor=none;" vertex="1" parent="dAYFn0Y0DVcSOOEVSeJ7-290">
          <mxGeometry x="100" y="170" width="30" height="30" as="geometry" />
        </mxCell>
        <mxCell id="dAYFn0Y0DVcSOOEVSeJ7-302" style="edgeStyle=orthogonalEdgeStyle;rounded=0;orthogonalLoop=1;jettySize=auto;html=1;exitX=0.5;exitY=1;exitDx=0;exitDy=0;entryX=0.5;entryY=0;entryDx=0;entryDy=0;endArrow=none;endFill=0;" edge="1" parent="1" source="dAYFn0Y0DVcSOOEVSeJ7-304" target="dAYFn0Y0DVcSOOEVSeJ7-307">
          <mxGeometry relative="1" as="geometry" />
        </mxCell>
        <mxCell id="dAYFn0Y0DVcSOOEVSeJ7-303" value="0,n" style="edgeLabel;html=1;align=center;verticalAlign=middle;resizable=0;points=[];" vertex="1" connectable="0" parent="dAYFn0Y0DVcSOOEVSeJ7-302">
          <mxGeometry x="0.0727" relative="1" as="geometry">
            <mxPoint as="offset" />
          </mxGeometry>
        </mxCell>
        <mxCell id="dAYFn0Y0DVcSOOEVSeJ7-304" value="est composé de&amp;nbsp;" style="swimlane;whiteSpace=wrap;html=1;rounded=1;" vertex="1" parent="1">
          <mxGeometry x="127.5" y="660" width="112.5" height="40" as="geometry" />
        </mxCell>
        <mxCell id="dAYFn0Y0DVcSOOEVSeJ7-305" value="" style="endArrow=none;html=1;rounded=0;entryX=0.5;entryY=1;entryDx=0;entryDy=0;exitX=0.454;exitY=0.009;exitDx=0;exitDy=0;exitPerimeter=0;" edge="1" parent="1" source="dAYFn0Y0DVcSOOEVSeJ7-304" target="dAYFn0Y0DVcSOOEVSeJ7-290">
          <mxGeometry width="50" height="50" relative="1" as="geometry">
            <mxPoint x="140" y="260" as="sourcePoint" />
            <mxPoint x="190" y="210" as="targetPoint" />
          </mxGeometry>
        </mxCell>
        <mxCell id="dAYFn0Y0DVcSOOEVSeJ7-306" value="0,n" style="edgeLabel;html=1;align=center;verticalAlign=middle;resizable=0;points=[];" vertex="1" connectable="0" parent="dAYFn0Y0DVcSOOEVSeJ7-305">
          <mxGeometry x="0.041" y="-1" relative="1" as="geometry">
            <mxPoint as="offset" />
          </mxGeometry>
        </mxCell>
        <mxCell id="dAYFn0Y0DVcSOOEVSeJ7-307" value="matiere" style="swimlane;whiteSpace=wrap;html=1;" vertex="1" parent="1">
          <mxGeometry x="610" y="650" width="125" height="101" as="geometry" />
        </mxCell>
        <mxCell id="dAYFn0Y0DVcSOOEVSeJ7-308" value="nom" style="text;html=1;align=center;verticalAlign=middle;resizable=0;points=[];autosize=1;strokeColor=none;fillColor=none;" vertex="1" parent="dAYFn0Y0DVcSOOEVSeJ7-307">
          <mxGeometry x="5" y="30" width="50" height="30" as="geometry" />
        </mxCell>
        <mxCell id="dAYFn0Y0DVcSOOEVSeJ7-309" value="id" style="text;html=1;align=center;verticalAlign=middle;resizable=0;points=[];autosize=1;strokeColor=none;fillColor=none;" vertex="1" parent="dAYFn0Y0DVcSOOEVSeJ7-307">
          <mxGeometry x="12.5" y="58.5" width="30" height="30" as="geometry" />
        </mxCell>
        <mxCell id="dAYFn0Y0DVcSOOEVSeJ7-310" style="edgeStyle=orthogonalEdgeStyle;rounded=0;orthogonalLoop=1;jettySize=auto;html=1;exitX=1;exitY=0.5;exitDx=0;exitDy=0;startArrow=none;startFill=0;endArrow=none;endFill=0;entryX=0;entryY=0.75;entryDx=0;entryDy=0;" edge="1" parent="1" source="dAYFn0Y0DVcSOOEVSeJ7-312" target="dAYFn0Y0DVcSOOEVSeJ7-313">
          <mxGeometry relative="1" as="geometry">
            <mxPoint x="500" y="350" as="targetPoint" />
            <Array as="points" />
          </mxGeometry>
        </mxCell>
        <mxCell id="dAYFn0Y0DVcSOOEVSeJ7-311" value="0,n" style="edgeLabel;html=1;align=center;verticalAlign=middle;resizable=0;points=[];" vertex="1" connectable="0" parent="dAYFn0Y0DVcSOOEVSeJ7-310">
          <mxGeometry x="-0.02" y="-1" relative="1" as="geometry">
            <mxPoint as="offset" />
          </mxGeometry>
        </mxCell>
        <mxCell id="dAYFn0Y0DVcSOOEVSeJ7-312" value="appartient" style="swimlane;whiteSpace=wrap;html=1;startSize=20;rounded=1;" vertex="1" parent="1">
          <mxGeometry x="355" y="470" width="110" height="40" as="geometry" />
        </mxCell>
        <mxCell id="dAYFn0Y0DVcSOOEVSeJ7-313" value="catégorie" style="swimlane;whiteSpace=wrap;html=1;" vertex="1" parent="1">
          <mxGeometry x="620" y="450" width="145" height="120" as="geometry" />
        </mxCell>
        <mxCell id="dAYFn0Y0DVcSOOEVSeJ7-314" value="id" style="text;html=1;align=center;verticalAlign=middle;resizable=0;points=[];autosize=1;strokeColor=none;fillColor=none;" vertex="1" parent="dAYFn0Y0DVcSOOEVSeJ7-313">
          <mxGeometry x="15" y="32" width="30" height="30" as="geometry" />
        </mxCell>
        <mxCell id="dAYFn0Y0DVcSOOEVSeJ7-315" value="nom" style="text;html=1;align=center;verticalAlign=middle;resizable=0;points=[];autosize=1;strokeColor=none;fillColor=none;" vertex="1" parent="dAYFn0Y0DVcSOOEVSeJ7-313">
          <mxGeometry x="5" y="70" width="50" height="30" as="geometry" />
        </mxCell>
        <mxCell id="dAYFn0Y0DVcSOOEVSeJ7-316" style="edgeStyle=orthogonalEdgeStyle;rounded=0;orthogonalLoop=1;jettySize=auto;html=1;exitX=1;exitY=0.5;exitDx=0;exitDy=0;endArrow=none;endFill=0;entryX=0;entryY=0.5;entryDx=0;entryDy=0;" edge="1" parent="1" source="dAYFn0Y0DVcSOOEVSeJ7-320" target="dAYFn0Y0DVcSOOEVSeJ7-335">
          <mxGeometry relative="1" as="geometry">
            <mxPoint x="260" y="100" as="targetPoint" />
          </mxGeometry>
        </mxCell>
        <mxCell id="dAYFn0Y0DVcSOOEVSeJ7-317" value="o,n" style="edgeLabel;html=1;align=center;verticalAlign=middle;resizable=0;points=[];" vertex="1" connectable="0" parent="dAYFn0Y0DVcSOOEVSeJ7-316">
          <mxGeometry x="-0.1484" y="-2" relative="1" as="geometry">
            <mxPoint x="1" as="offset" />
          </mxGeometry>
        </mxCell>
        <mxCell id="dAYFn0Y0DVcSOOEVSeJ7-318" style="edgeStyle=orthogonalEdgeStyle;rounded=0;orthogonalLoop=1;jettySize=auto;html=1;exitX=0.5;exitY=1;exitDx=0;exitDy=0;entryX=0;entryY=0.75;entryDx=0;entryDy=0;endArrow=none;endFill=0;" edge="1" parent="1" source="dAYFn0Y0DVcSOOEVSeJ7-320" target="dAYFn0Y0DVcSOOEVSeJ7-341">
          <mxGeometry relative="1" as="geometry" />
        </mxCell>
        <mxCell id="dAYFn0Y0DVcSOOEVSeJ7-319" value="0.n" style="edgeLabel;html=1;align=center;verticalAlign=middle;resizable=0;points=[];" vertex="1" connectable="0" parent="dAYFn0Y0DVcSOOEVSeJ7-318">
          <mxGeometry x="0.1111" relative="1" as="geometry">
            <mxPoint as="offset" />
          </mxGeometry>
        </mxCell>
        <mxCell id="dAYFn0Y0DVcSOOEVSeJ7-320" value="utilisateur" style="swimlane;whiteSpace=wrap;html=1;" vertex="1" parent="1">
          <mxGeometry x="60" y="60" width="130" height="140" as="geometry" />
        </mxCell>
        <mxCell id="dAYFn0Y0DVcSOOEVSeJ7-321" value="nom" style="text;html=1;align=center;verticalAlign=middle;resizable=0;points=[];autosize=1;strokeColor=none;fillColor=none;" vertex="1" parent="dAYFn0Y0DVcSOOEVSeJ7-320">
          <mxGeometry x="25" y="30" width="50" height="30" as="geometry" />
        </mxCell>
        <mxCell id="dAYFn0Y0DVcSOOEVSeJ7-322" value="email" style="text;html=1;align=center;verticalAlign=middle;resizable=0;points=[];autosize=1;strokeColor=none;fillColor=none;" vertex="1" parent="dAYFn0Y0DVcSOOEVSeJ7-320">
          <mxGeometry x="25" y="60" width="50" height="30" as="geometry" />
        </mxCell>
        <mxCell id="dAYFn0Y0DVcSOOEVSeJ7-323" value="id" style="text;html=1;align=center;verticalAlign=middle;resizable=0;points=[];autosize=1;strokeColor=none;fillColor=none;" vertex="1" parent="dAYFn0Y0DVcSOOEVSeJ7-320">
          <mxGeometry x="35" y="88" width="30" height="30" as="geometry" />
        </mxCell>
        <mxCell id="dAYFn0Y0DVcSOOEVSeJ7-324" style="edgeStyle=orthogonalEdgeStyle;rounded=0;orthogonalLoop=1;jettySize=auto;html=1;exitX=0;exitY=0.5;exitDx=0;exitDy=0;entryX=1;entryY=0.75;entryDx=0;entryDy=0;endArrow=none;endFill=0;" edge="1" parent="1" source="dAYFn0Y0DVcSOOEVSeJ7-326" target="dAYFn0Y0DVcSOOEVSeJ7-347">
          <mxGeometry relative="1" as="geometry" />
        </mxCell>
        <mxCell id="dAYFn0Y0DVcSOOEVSeJ7-325" value="1.n" style="edgeLabel;html=1;align=center;verticalAlign=middle;resizable=0;points=[];" vertex="1" connectable="0" parent="dAYFn0Y0DVcSOOEVSeJ7-324">
          <mxGeometry x="-0.1111" y="1" relative="1" as="geometry">
            <mxPoint as="offset" />
          </mxGeometry>
        </mxCell>
        <mxCell id="dAYFn0Y0DVcSOOEVSeJ7-326" value="détail-commande" style="swimlane;whiteSpace=wrap;html=1;" vertex="1" parent="1">
          <mxGeometry x="395" y="300" width="125" height="110" as="geometry" />
        </mxCell>
        <mxCell id="dAYFn0Y0DVcSOOEVSeJ7-327" style="edgeStyle=orthogonalEdgeStyle;rounded=0;orthogonalLoop=1;jettySize=auto;html=1;exitX=0.5;exitY=1;exitDx=0;exitDy=0;endArrow=none;endFill=0;" edge="1" parent="1" source="dAYFn0Y0DVcSOOEVSeJ7-329">
          <mxGeometry relative="1" as="geometry">
            <mxPoint x="200" y="420" as="targetPoint" />
            <Array as="points">
              <mxPoint x="725" y="420" />
            </Array>
          </mxGeometry>
        </mxCell>
        <mxCell id="dAYFn0Y0DVcSOOEVSeJ7-328" value="0.n" style="edgeLabel;html=1;align=center;verticalAlign=middle;resizable=0;points=[];" vertex="1" connectable="0" parent="dAYFn0Y0DVcSOOEVSeJ7-327">
          <mxGeometry x="-0.1205" y="-1" relative="1" as="geometry">
            <mxPoint as="offset" />
          </mxGeometry>
        </mxCell>
        <mxCell id="dAYFn0Y0DVcSOOEVSeJ7-329" value="commentaire" style="swimlane;whiteSpace=wrap;html=1;" vertex="1" parent="1">
          <mxGeometry x="660" y="50" width="130" height="140" as="geometry" />
        </mxCell>
        <mxCell id="dAYFn0Y0DVcSOOEVSeJ7-330" value="id" style="text;html=1;align=center;verticalAlign=middle;resizable=0;points=[];autosize=1;strokeColor=none;fillColor=none;" vertex="1" parent="dAYFn0Y0DVcSOOEVSeJ7-329">
          <mxGeometry y="40" width="30" height="30" as="geometry" />
        </mxCell>
        <mxCell id="dAYFn0Y0DVcSOOEVSeJ7-331" value="date" style="text;html=1;align=center;verticalAlign=middle;resizable=0;points=[];autosize=1;strokeColor=none;fillColor=none;" vertex="1" parent="dAYFn0Y0DVcSOOEVSeJ7-329">
          <mxGeometry y="65" width="50" height="30" as="geometry" />
        </mxCell>
        <mxCell id="dAYFn0Y0DVcSOOEVSeJ7-332" style="edgeStyle=orthogonalEdgeStyle;rounded=0;orthogonalLoop=1;jettySize=auto;html=1;exitX=1;exitY=0.5;exitDx=0;exitDy=0;entryX=0;entryY=0.5;entryDx=0;entryDy=0;endArrow=none;endFill=0;" edge="1" parent="1" source="dAYFn0Y0DVcSOOEVSeJ7-335" target="dAYFn0Y0DVcSOOEVSeJ7-329">
          <mxGeometry relative="1" as="geometry">
            <mxPoint x="430" y="150" as="targetPoint" />
          </mxGeometry>
        </mxCell>
        <mxCell id="dAYFn0Y0DVcSOOEVSeJ7-333" value="t" style="edgeLabel;html=1;align=center;verticalAlign=middle;resizable=0;points=[];" vertex="1" connectable="0" parent="dAYFn0Y0DVcSOOEVSeJ7-332">
          <mxGeometry x="-0.0759" y="2" relative="1" as="geometry">
            <mxPoint as="offset" />
          </mxGeometry>
        </mxCell>
        <mxCell id="dAYFn0Y0DVcSOOEVSeJ7-334" value="1.n" style="edgeLabel;html=1;align=center;verticalAlign=middle;resizable=0;points=[];" vertex="1" connectable="0" parent="dAYFn0Y0DVcSOOEVSeJ7-332">
          <mxGeometry x="-0.1103" y="3" relative="1" as="geometry">
            <mxPoint as="offset" />
          </mxGeometry>
        </mxCell>
        <mxCell id="dAYFn0Y0DVcSOOEVSeJ7-335" value="écrire" style="swimlane;whiteSpace=wrap;html=1;startSize=10;rounded=1;" vertex="1" parent="1">
          <mxGeometry x="280" y="105" width="90" height="30" as="geometry" />
        </mxCell>
        <mxCell id="dAYFn0Y0DVcSOOEVSeJ7-336" style="edgeStyle=orthogonalEdgeStyle;rounded=0;orthogonalLoop=1;jettySize=auto;html=1;exitX=1;exitY=0.5;exitDx=0;exitDy=0;entryX=0.658;entryY=0;entryDx=0;entryDy=0;entryPerimeter=0;endArrow=none;endFill=0;" edge="1" parent="1" source="dAYFn0Y0DVcSOOEVSeJ7-338" target="dAYFn0Y0DVcSOOEVSeJ7-344">
          <mxGeometry relative="1" as="geometry" />
        </mxCell>
        <mxCell id="dAYFn0Y0DVcSOOEVSeJ7-337" value="1.n" style="edgeLabel;html=1;align=center;verticalAlign=middle;resizable=0;points=[];" vertex="1" connectable="0" parent="dAYFn0Y0DVcSOOEVSeJ7-336">
          <mxGeometry x="-0.1412" relative="1" as="geometry">
            <mxPoint as="offset" />
          </mxGeometry>
        </mxCell>
        <mxCell id="dAYFn0Y0DVcSOOEVSeJ7-338" value="commande" style="swimlane;whiteSpace=wrap;html=1;" vertex="1" parent="1">
          <mxGeometry x="380" y="183" width="130" height="94" as="geometry" />
        </mxCell>
        <mxCell id="dAYFn0Y0DVcSOOEVSeJ7-339" style="edgeStyle=orthogonalEdgeStyle;rounded=0;orthogonalLoop=1;jettySize=auto;html=1;exitX=1;exitY=0.5;exitDx=0;exitDy=0;entryX=0;entryY=0.5;entryDx=0;entryDy=0;endArrow=none;endFill=0;" edge="1" parent="1" source="dAYFn0Y0DVcSOOEVSeJ7-341" target="dAYFn0Y0DVcSOOEVSeJ7-338">
          <mxGeometry relative="1" as="geometry" />
        </mxCell>
        <mxCell id="dAYFn0Y0DVcSOOEVSeJ7-340" value="1.1" style="edgeLabel;html=1;align=center;verticalAlign=middle;resizable=0;points=[];" vertex="1" connectable="0" parent="dAYFn0Y0DVcSOOEVSeJ7-339">
          <mxGeometry x="-0.0769" y="-1" relative="1" as="geometry">
            <mxPoint as="offset" />
          </mxGeometry>
        </mxCell>
        <mxCell id="dAYFn0Y0DVcSOOEVSeJ7-341" value="passe" style="swimlane;whiteSpace=wrap;html=1;startSize=20;rounded=1;" vertex="1" parent="1">
          <mxGeometry x="220" y="210" width="95" height="40" as="geometry" />
        </mxCell>
        <mxCell id="dAYFn0Y0DVcSOOEVSeJ7-342" style="edgeStyle=orthogonalEdgeStyle;rounded=0;orthogonalLoop=1;jettySize=auto;html=1;exitX=0;exitY=0.5;exitDx=0;exitDy=0;entryX=1;entryY=0.25;entryDx=0;entryDy=0;endArrow=none;endFill=0;" edge="1" parent="1" source="dAYFn0Y0DVcSOOEVSeJ7-344" target="dAYFn0Y0DVcSOOEVSeJ7-326">
          <mxGeometry relative="1" as="geometry" />
        </mxCell>
        <mxCell id="dAYFn0Y0DVcSOOEVSeJ7-343" value="1.n" style="edgeLabel;html=1;align=center;verticalAlign=middle;resizable=0;points=[];" vertex="1" connectable="0" parent="dAYFn0Y0DVcSOOEVSeJ7-342">
          <mxGeometry x="-0.2885" y="1" relative="1" as="geometry">
            <mxPoint as="offset" />
          </mxGeometry>
        </mxCell>
        <mxCell id="dAYFn0Y0DVcSOOEVSeJ7-344" value="est associé" style="swimlane;whiteSpace=wrap;html=1;startSize=20;rounded=1;" vertex="1" parent="1">
          <mxGeometry x="610" y="308" width="95" height="40" as="geometry" />
        </mxCell>
        <mxCell id="dAYFn0Y0DVcSOOEVSeJ7-345" style="edgeStyle=orthogonalEdgeStyle;rounded=0;orthogonalLoop=1;jettySize=auto;html=1;exitX=0;exitY=0.75;exitDx=0;exitDy=0;endArrow=none;endFill=0;" edge="1" parent="1" source="dAYFn0Y0DVcSOOEVSeJ7-347">
          <mxGeometry relative="1" as="geometry">
            <mxPoint x="200" y="350" as="targetPoint" />
          </mxGeometry>
        </mxCell>
        <mxCell id="dAYFn0Y0DVcSOOEVSeJ7-346" value="0.n" style="edgeLabel;html=1;align=center;verticalAlign=middle;resizable=0;points=[];" vertex="1" connectable="0" parent="dAYFn0Y0DVcSOOEVSeJ7-345">
          <mxGeometry x="-0.2594" y="2" relative="1" as="geometry">
            <mxPoint as="offset" />
          </mxGeometry>
        </mxCell>
        <mxCell id="dAYFn0Y0DVcSOOEVSeJ7-347" value="est associé" style="swimlane;whiteSpace=wrap;html=1;startSize=10;rounded=1;" vertex="1" parent="1">
          <mxGeometry x="240" y="320" width="95" height="40" as="geometry" />
        </mxCell>
        <mxCell id="dAYFn0Y0DVcSOOEVSeJ7-348" value="date" style="text;html=1;align=center;verticalAlign=middle;resizable=0;points=[];autosize=1;strokeColor=none;fillColor=none;" vertex="1" parent="1">
          <mxGeometry x="395" y="208" width="50" height="30" as="geometry" />
        </mxCell>
        <mxCell id="dAYFn0Y0DVcSOOEVSeJ7-349" value="id" style="text;html=1;align=center;verticalAlign=middle;resizable=0;points=[];autosize=1;strokeColor=none;fillColor=none;" vertex="1" parent="1">
          <mxGeometry x="405" y="238" width="30" height="30" as="geometry" />
        </mxCell>
        <mxCell id="dAYFn0Y0DVcSOOEVSeJ7-350" value="quantité" style="text;html=1;align=center;verticalAlign=middle;resizable=0;points=[];autosize=1;strokeColor=none;fillColor=none;" vertex="1" parent="1">
          <mxGeometry x="385" y="328" width="70" height="30" as="geometry" />
        </mxCell>
        <mxCell id="dAYFn0Y0DVcSOOEVSeJ7-351" value="prix" style="text;html=1;align=center;verticalAlign=middle;resizable=0;points=[];autosize=1;strokeColor=none;fillColor=none;" vertex="1" parent="1">
          <mxGeometry x="390" y="348" width="40" height="30" as="geometry" />
        </mxCell>
        <mxCell id="dAYFn0Y0DVcSOOEVSeJ7-352" value="montant" style="text;html=1;align=center;verticalAlign=middle;resizable=0;points=[];autosize=1;strokeColor=none;fillColor=none;" vertex="1" parent="1">
          <mxGeometry x="435" y="208" width="70" height="30" as="geometry" />
        </mxCell>
        <mxCell id="dAYFn0Y0DVcSOOEVSeJ7-353" value="id" style="text;html=1;align=center;verticalAlign=middle;resizable=0;points=[];autosize=1;strokeColor=none;fillColor=none;" vertex="1" parent="1">
          <mxGeometry x="445" y="368" width="30" height="30" as="geometry" />
        </mxCell>
      </root>
    </mxGraphModel>
  </diagram>
</mxfile>
